<svg width="112" height="113" viewBox="0 0 112 113" fill="none" xmlns="http://www.w3.org/2000/svg">
<rect x="39" y="38.5" width="44" height="22" rx="11" fill="#F8FAFD"/>
<g filter="url(#filter0_d_72_1065)">
<rect x="41" y="40.5" width="18" height="18" rx="9" fill="#E0E8F3"/>
<g clip-path="url(#clip0_72_1065)">
<g clip-path="url(#clip1_72_1065)">
<g clip-path="url(#clip2_72_1065)">
<path d="M47.5758 51.8222C46.2368 50.5397 46.2368 48.4603 47.5758 47.1778C48.9149 45.8953 51.086 45.8953 52.425 47.1778C53.7641 48.4603 53.7641 50.5397 52.425 51.8222C51.086 53.1047 48.9149 53.1047 47.5758 51.8222Z" fill="#F3BD00"/>
<path d="M50.0004 56.0999C50.1292 56.0999 50.234 55.9999 50.234 55.8762V53.9752C50.234 53.8519 50.1295 53.7515 50.0004 53.7515C49.8712 53.7515 49.7667 53.8515 49.7667 53.9752V55.8762C49.7667 55.9995 49.8712 56.0999 50.0004 56.0999Z" fill="#F3BD00"/>
<path d="M55.7663 52.9122C55.8471 52.9122 55.9255 52.872 55.9689 52.8003C56.0335 52.6935 55.995 52.5566 55.8835 52.4947L54.1637 51.5439C54.0522 51.4821 53.9093 51.5189 53.8447 51.6257C53.7801 51.7325 53.8186 51.8694 53.9301 51.9313L55.6499 52.8821C55.6866 52.9024 55.7268 52.9122 55.7663 52.9122Z" fill="#F3BD00"/>
<path d="M54.0466 47.4863C54.0861 47.4863 54.1263 47.4765 54.163 47.4562L55.8831 46.5058C55.9946 46.4439 56.0331 46.3074 55.9685 46.2002C55.9039 46.0934 55.7614 46.0566 55.6495 46.1184L53.9297 47.0692C53.8182 47.1311 53.7798 47.2676 53.8443 47.3748C53.8874 47.4464 53.9658 47.4863 54.0466 47.4863Z" fill="#F3BD00"/>
<path d="M50.0004 45.2488C50.1292 45.2488 50.234 45.1488 50.234 45.0251V43.1241C50.234 43.0008 50.1295 42.9004 50.0004 42.9004C49.8712 42.9004 49.7667 43.0004 49.7667 43.1241V45.0254C49.7667 45.1488 49.8712 45.2488 50.0004 45.2488Z" fill="#F3BD00"/>
<path d="M45.9536 47.4862C46.0344 47.4862 46.1127 47.446 46.1561 47.3744C46.2207 47.2676 46.1823 47.1307 46.0707 47.0688L44.351 46.1177C44.2395 46.0558 44.0965 46.0927 44.032 46.1995C43.9674 46.3063 44.0058 46.4432 44.1174 46.505L45.8371 47.4562C45.8738 47.4764 45.914 47.4862 45.9536 47.4862Z" fill="#F3BD00"/>
<path d="M44.2339 52.9118C44.2734 52.9118 44.3137 52.902 44.3504 52.8817L46.0701 51.9306C46.1817 51.8687 46.2201 51.7322 46.1555 51.625C46.091 51.5182 45.9484 51.4814 45.8365 51.5432L44.1168 52.4943C44.0052 52.5562 43.9668 52.6928 44.0313 52.7999C44.0748 52.8716 44.1531 52.9118 44.2339 52.9118Z" fill="#F3BD00"/>
<path d="M47.1266 54.4907C47.2075 54.4907 47.2858 54.4505 47.3292 54.3788L47.8664 53.4882C47.9309 53.3814 47.8925 53.2445 47.7809 53.1826C47.6694 53.1208 47.5265 53.1576 47.4619 53.2644L46.9248 54.155C46.8602 54.2619 46.8987 54.3987 47.0102 54.4606C47.0469 54.4809 47.0871 54.4907 47.1266 54.4907Z" fill="#F3BD00"/>
<path d="M52.8742 54.4905C52.9137 54.4905 52.954 54.4807 52.9907 54.4605C53.1022 54.3986 53.1407 54.262 53.0761 54.1549L52.5389 53.2639C52.4744 53.1571 52.3318 53.1203 52.2199 53.1821C52.1084 53.244 52.0699 53.3805 52.1345 53.4877L52.6716 54.3787C52.715 54.4503 52.7934 54.4905 52.8742 54.4905Z" fill="#F3BD00"/>
<path d="M54.6727 49.7239H55.7473C55.8761 49.7239 55.981 49.6238 55.981 49.5001C55.981 49.3764 55.8765 49.2764 55.7473 49.2764H54.6724C54.5435 49.2764 54.4387 49.3764 54.4387 49.5001C54.4387 49.6238 54.5435 49.7239 54.6727 49.7239Z" fill="#F3BD00"/>
<path d="M52.3367 45.8477C52.4176 45.8477 52.4959 45.8075 52.5393 45.7358L53.0761 44.8449C53.1407 44.738 53.1022 44.6012 52.9907 44.5393C52.8788 44.4774 52.7362 44.5143 52.6716 44.6211L52.1349 45.5121C52.0703 45.6189 52.1088 45.7558 52.2203 45.8176C52.257 45.8379 52.2972 45.8477 52.3367 45.8477Z" fill="#F3BD00"/>
<path d="M47.6641 45.8477C47.7037 45.8477 47.7439 45.8379 47.7806 45.8176C47.8921 45.7558 47.9306 45.6192 47.866 45.5121L47.3292 44.6211C47.2646 44.5143 47.1221 44.4774 47.0102 44.5393C46.8987 44.6012 46.8602 44.7377 46.9248 44.8449L47.4616 45.7358C47.5046 45.8075 47.5833 45.8477 47.6641 45.8477Z" fill="#F3BD00"/>
<path d="M44.2529 49.7239H45.3275C45.4563 49.7239 45.5612 49.6238 45.5612 49.5001C45.5612 49.3764 45.4567 49.2764 45.3275 49.2764H44.2529C44.1241 49.2764 44.0193 49.3764 44.0193 49.5001C44.0193 49.6238 44.1237 49.7239 44.2529 49.7239Z" fill="#F3BD00"/>
</g>
</g>
</g>
</g>
<defs>
<filter id="filter0_d_72_1065" x="0" y="0.5" width="112" height="112" filterUnits="userSpaceOnUse" color-interpolation-filters="sRGB">
<feFlood flood-opacity="0" result="BackgroundImageFix"/>
<feColorMatrix in="SourceAlpha" type="matrix" values="0 0 0 0 0 0 0 0 0 0 0 0 0 0 0 0 0 0 127 0" result="hardAlpha"/>
<feMorphology radius="1" operator="erode" in="SourceAlpha" result="effect1_dropShadow_72_1065"/>
<feOffset dx="6" dy="7"/>
<feGaussianBlur stdDeviation="24"/>
<feComposite in2="hardAlpha" operator="out"/>
<feColorMatrix type="matrix" values="0 0 0 0 0.133333 0 0 0 0 0.235294 0 0 0 0 0.313726 0 0 0 0.21 0"/>
<feBlend mode="normal" in2="BackgroundImageFix" result="effect1_dropShadow_72_1065"/>
<feBlend mode="normal" in="SourceGraphic" in2="effect1_dropShadow_72_1065" result="shape"/>
</filter>
<clipPath id="clip0_72_1065">
<rect width="12" height="15" fill="white" transform="translate(44 42)"/>
</clipPath>
<clipPath id="clip1_72_1065">
<rect width="12" height="15" fill="white" transform="translate(44 42)"/>
</clipPath>
<clipPath id="clip2_72_1065">
<rect width="12" height="15" fill="white" transform="translate(44 42)"/>
</clipPath>
</defs>
</svg>
