<svg width="22" height="22" viewBox="0 0 22 22" fill="none" xmlns="http://www.w3.org/2000/svg">
<path fill-rule="evenodd" clip-rule="evenodd" d="M0.25 6C0.25 4.47501 0.855802 3.01247 1.93414 1.93414C3.01247 0.855802 4.47501 0.25 6 0.25H16C17.525 0.25 18.9875 0.855802 20.0659 1.93414C21.1442 3.01247 21.75 4.47501 21.75 6V16C21.75 17.525 21.1442 18.9875 20.0659 20.0659C18.9875 21.1442 17.525 21.75 16 21.75H6C4.47501 21.75 3.01247 21.1442 1.93414 20.0659C0.855802 18.9875 0.25 17.525 0.25 16V6Z" fill="#9BAECA" fill-opacity="0.4"/>
<path d="M13.9 9.84998C13.9 9.58476 14.0054 9.3304 14.1929 9.14287C14.3804 8.95533 14.6348 8.84998 14.9 8.84998H16.69C16.9552 8.84998 17.2096 8.95533 17.3971 9.14287C17.5846 9.3304 17.69 9.58476 17.69 9.84998V16.4H13.9V9.84998Z" fill="#9BAECA"/>
<path d="M4.32 12.15C4.32 11.8848 4.42536 11.6305 4.61289 11.4429C4.80043 11.2554 5.05478 11.15 5.32 11.15H7.11C7.37522 11.15 7.62957 11.2554 7.81711 11.4429C8.00464 11.6305 8.11 11.8848 8.11 12.15V16.41H4.32V12.15Z" fill="#9BAECA"/>
<path d="M11.761 5.59998H10.241C9.611 5.59998 9.101 6.10998 9.101 6.73998V16.4H12.891V6.73998C12.891 6.10998 12.391 5.59998 11.761 5.59998Z" fill="#9BAECA"/>
</svg>
