<svg width="24" height="30" viewBox="0 0 24 30" fill="none" xmlns="http://www.w3.org/2000/svg">
<path d="M5.3077 14.4923C5.3077 14.3077 5.07693 14.2154 4.93846 14.3077L2.86154 16.0154C2.76923 16.1077 2.76923 16.2462 2.76923 16.3846V23.7231C2.76923 24.1846 3.41539 24.4154 3.83077 24.0923L7.2 21.4615C7.29231 21.3692 7.33846 21.2769 7.24616 21.1385C6.41539 19.8923 5.58462 17.8154 5.3077 14.4923Z" fill="#9BAECA"/>
<path opacity="0.4" d="M9.78462 21.3692C9.87692 21.4154 9.96923 21.4616 10.0615 21.4616H13.8923C13.9846 21.4616 14.0769 21.4154 14.1692 21.3692C14.7231 21 16.9385 19.1539 16.9385 12.8769C16.9385 9.96925 16.1077 7.93848 15.1385 6.55386C13.7077 4.5231 12 3.9231 12 3.9231C12 3.9231 10.2462 4.5231 8.81538 6.60002C7.84615 7.98463 7.06154 9.96925 7.06154 12.8769C7.06154 19.1539 9.23077 21 9.78462 21.3692ZM11.9538 9.00002C13.4769 9.00002 14.7231 10.2462 14.7231 11.7692C14.7231 13.2923 13.4769 14.5385 11.9538 14.5385C10.4308 14.5385 9.18462 13.2923 9.18462 11.7692C9.18462 10.2462 10.4308 9.00002 11.9538 9.00002Z" fill="#9BAECA"/>
<path d="M21.0923 16.0154L19.0615 14.3077C18.9231 14.1693 18.6923 14.2616 18.6923 14.4923C18.4154 17.8154 17.5846 19.8923 16.8 21.1847C16.7538 21.277 16.7538 21.4154 16.8462 21.5077L20.2154 24.1385C20.6308 24.4616 21.2308 24.2308 21.2308 23.7693V16.3847C21.2308 16.2462 21.2308 16.1077 21.0923 16.0154ZM14.8615 23.5385C14.7692 23.4 14.6308 23.3077 14.4923 23.3077H9.41538C9.27692 23.3077 9.09231 23.4 9.04615 23.5385C8.86154 23.8154 8.58462 24.3231 8.4 24.9693C8.26154 25.5231 8.72308 26.077 9.32308 26.077H14.5846C15.1846 26.077 15.6462 25.5231 15.5077 24.9693C15.3231 24.277 15.0462 23.7693 14.8615 23.5385Z" fill="#9BAECA"/>
</svg>
