<svg width="24" height="24" viewBox="0 0 24 24" fill="none" xmlns="http://www.w3.org/2000/svg">
<path opacity="0.4" d="M22 15.94C22 18.73 19.76 20.99 16.97 21H7.05C4.27 21 2 18.75 2 15.96V15.95C2 15.95 2.006 11.524 2.014 9.298C2.01357 9.20412 2.03969 9.11204 2.08935 9.03236C2.139 8.95269 2.21016 8.88867 2.29462 8.84769C2.37909 8.80671 2.47341 8.79044 2.56672 8.80076C2.66003 8.81108 2.74853 8.84756 2.822 8.906C5.198 10.791 9.447 14.228 9.5 14.273C10.21 14.842 11.11 15.163 12.03 15.163C12.95 15.163 13.85 14.842 14.56 14.262C14.613 14.227 18.767 10.893 21.179 8.977C21.2525 8.91888 21.3409 8.88261 21.4341 8.87232C21.5273 8.86203 21.6215 8.87813 21.7059 8.9188C21.7904 8.95946 21.8617 9.02304 21.9117 9.10229C21.9618 9.18154 21.9886 9.27327 21.989 9.367C21.999 11.576 22 15.94 22 15.94Z" fill="#9BAECA"/>
<path d="M21.476 5.674C21.047 4.86708 20.4066 4.19199 19.6235 3.72098C18.8403 3.24996 17.9438 3.00075 17.03 3H7.04997C6.13609 3.00075 5.23962 3.24996 4.45647 3.72098C3.67332 4.19199 3.03298 4.86708 2.60397 5.674C2.50978 5.85137 2.48032 6.056 2.52066 6.25273C2.56099 6.44946 2.66859 6.626 2.82497 6.752L10.25 12.691C10.77 13.111 11.4 13.319 12.03 13.319H12.05C12.68 13.319 13.31 13.11 13.83 12.69L21.255 6.752C21.4113 6.626 21.519 6.44946 21.5593 6.25273C21.5996 6.056 21.5702 5.85137 21.476 5.674Z" fill="#9BAECA"/>
</svg>
