<svg width="24" height="24" viewBox="0 0 24 24" fill="none" xmlns="http://www.w3.org/2000/svg">
<path fill-rule="evenodd" clip-rule="evenodd" d="M10.005 6H10C5.585 6 2 9.585 2 14C2 18.415 5.585 22 10 22C11.147 21.9995 12.2804 21.7524 13.3236 21.2757C14.3667 20.7989 15.2952 20.1035 16.0462 19.2365C16.7971 18.3696 17.353 17.3514 17.6761 16.2509C17.9992 15.1504 18.0821 13.9933 17.919 12.858C17.8848 12.6198 17.7659 12.4019 17.5841 12.2443C17.4022 12.0867 17.1696 12 16.929 12H11.02V7L10.999 7.021L11 7C11 6.73565 10.8953 6.48205 10.7089 6.29466C10.5224 6.10726 10.2693 6.00132 10.005 6Z" fill="white" fill-opacity="0.4"/>
<path d="M13.294 2.292C13.3872 2.19908 13.4977 2.12545 13.6194 2.07535C13.7411 2.02524 13.8714 1.99963 14.003 2C18.069 2.011 21.429 4.993 21.99 8.856C22.0107 8.99803 22.0005 9.14285 21.9602 9.28061C21.92 9.41837 21.8505 9.54585 21.7566 9.65438C21.6627 9.76291 21.5465 9.84995 21.4159 9.90959C21.2854 9.96922 21.1435 10.0001 21 10H14C13.7348 10 13.4804 9.89464 13.2929 9.70711C13.1054 9.51957 13 9.26522 13 9V3C13 2.86845 13.026 2.7382 13.0765 2.61671C13.1269 2.49522 13.2008 2.38487 13.294 2.292Z" fill="white"/>
</svg>
