<svg width="24" height="24" viewBox="0 0 24 24" fill="none" xmlns="http://www.w3.org/2000/svg">
<path opacity="0.6" d="M14 16C14 17.77 13.23 19.37 12 20.46C10.9053 21.4541 9.47871 22.0034 8 22C4.69 22 2 19.31 2 16C2 13.24 3.88 10.9 6.42 10.21C6.76432 11.0755 7.30478 11.8493 7.99887 12.4706C8.69297 13.0918 9.52174 13.5434 10.42 13.79C10.92 13.93 11.45 14 12 14C12.55 14 13.08 13.93 13.58 13.79C13.85 14.47 14 15.22 14 16Z" fill="#9BAECA"/>
<path d="M18 8C18.0021 9.31673 17.5702 10.5974 16.7712 11.6441C15.9723 12.6907 14.8507 13.4449 13.58 13.79C13.08 13.93 12.55 14 12 14C11.45 14 10.92 13.93 10.42 13.79C9.14956 13.4444 8.02827 12.6901 7.22937 11.6436C6.43047 10.5971 5.99843 9.3166 6 8C6 4.69 8.69 2 12 2C15.31 2 18 4.69 18 8Z" fill="#9BAECA"/>
<path opacity="0.4" d="M22 16C22 19.31 19.31 22 16 22C14.5213 22.0034 13.0947 21.4541 12 20.46C13.23 19.37 14 17.77 14 16C14 15.22 13.85 14.47 13.58 13.79C15.41 13.29 16.89 11.95 17.58 10.21C20.12 10.9 22 13.24 22 16Z" fill="#9BAECA"/>
</svg>
