<svg width="24" height="24" viewBox="0 0 24 24" fill="none" xmlns="http://www.w3.org/2000/svg">
<mask id="mask0_72_1333" style="mask-type:luminance" maskUnits="userSpaceOnUse" x="0" y="0" width="24" height="24">
<path d="M0 0H24V24H0V0Z" fill="white"/>
</mask>
<g mask="url(#mask0_72_1333)">
<path d="M5.538 15.692V7.16302H2.77C2.03616 7.16566 1.33313 7.45834 0.814225 7.97725C0.29532 8.49616 0.00263499 9.19919 0 9.93302L0 21.23C0.00263499 21.9639 0.29532 22.6669 0.814225 23.1858C1.33313 23.7047 2.03616 23.9974 2.77 24H14.068C14.8019 23.9979 15.5051 23.7054 16.024 23.1863C16.5429 22.6673 16.8352 21.9639 16.837 21.23V18.462H8.307C7.57309 18.4599 6.86986 18.1674 6.351 17.6483C5.83214 17.1293 5.53985 16.4259 5.538 15.692Z" fill="#9BAECA"/>
<path d="M21.23 0H9.933C9.19934 0.00289829 8.49656 0.295699 7.97787 0.814576C7.45918 1.33345 7.16663 2.03633 7.164 2.77V14.068C7.16611 14.8019 7.45866 15.5051 7.97771 16.024C8.49676 16.5429 9.20009 16.8352 9.934 16.837H21.23C21.9641 16.8352 22.6676 16.5427 23.1866 16.0236C23.7057 15.5046 23.9982 14.8011 24 14.067V2.77C23.9982 2.03592 23.7057 1.33243 23.1866 0.813356C22.6676 0.29428 21.9641 0.00184808 21.23 0ZM21.23 8.308C21.2221 8.54741 21.1215 8.77437 20.9493 8.94094C20.7772 9.1075 20.547 9.20062 20.3075 9.20062C20.068 9.20062 19.8378 9.1075 19.6657 8.94094C19.4935 8.77437 19.3929 8.54741 19.385 8.308V4.615H15.692C15.4472 4.615 15.2124 4.51776 15.0393 4.34466C14.8662 4.17156 14.769 3.93679 14.769 3.692C14.769 3.44721 14.8662 3.21244 15.0393 3.03934C15.2124 2.86624 15.4472 2.769 15.692 2.769H19.385C19.8746 2.769 20.3441 2.96349 20.6903 3.30968C21.0365 3.65587 21.231 4.12541 21.231 4.615L21.23 8.308Z" fill="#9BAECA" fill-opacity="0.4"/>
</g>
</svg>
