<svg width="20" height="18" viewBox="0 0 20 18" fill="none" xmlns="http://www.w3.org/2000/svg">
<path d="M10.825 9.55499H9.175C9.064 9.55499 8.974 9.64499 8.974 9.75499V11.415C8.974 11.525 9.064 11.615 9.174 11.615H10.825C10.936 11.615 11.026 11.525 11.026 11.415V9.75499C11.026 9.64499 10.936 9.55499 10.826 9.55499" fill="#9BAECA"/>
<path d="M16.915 2.775H13.51V1.35C13.51 0.606 12.898 0 12.147 0H7.853C7.102 0 6.49 0.606 6.49 1.35V2.775H3.085C2.26721 2.77632 1.4833 3.10177 0.905036 3.68004C0.326773 4.2583 0.00132221 5.04221 0 5.86L0 7.71C0.056777 7.98661 0.186196 8.24312 0.374953 8.45314C0.56371 8.66316 0.804994 8.81913 1.074 8.905L7.798 10.548V9.755C7.798 8.997 8.416 8.379 9.175 8.379H10.825C11.585 8.379 12.202 8.997 12.202 9.755V10.548L18.926 8.905C19.483 8.726 19.886 8.267 20 7.71V5.86C19.9987 5.04221 19.6732 4.2583 19.095 3.68004C18.5167 3.10177 17.7328 2.77632 16.915 2.775ZM12.335 2.775H7.665V1.35C7.665 1.25 7.746 1.175 7.853 1.175H12.147C12.254 1.175 12.334 1.251 12.334 1.35L12.335 2.775Z" fill="#9BAECA" fill-opacity="0.4"/>
<path d="M19.257 10.032L19.223 10.042L12.155 11.769C12.076 12.0614 11.9029 12.3197 11.6626 12.504C11.4222 12.6884 11.1279 12.7885 10.825 12.789H9.175C8.8721 12.7885 8.57777 12.6884 8.33741 12.504C8.09705 12.3197 7.92402 12.0614 7.845 11.769L0.777 10.04L0.743 10.031C0.479134 9.94961 0.228758 9.82964 0 9.67499L0 14.671C0 16.061 1.13 17.191 2.52 17.191H17.48C18.87 17.191 20 16.061 20 14.671V9.67499C19.7713 9.82999 19.5209 9.95029 19.257 10.032Z" fill="#9BAECA"/>
</svg>
