<svg width="24" height="24" viewBox="0 0 24 24" fill="none" xmlns="http://www.w3.org/2000/svg">
<mask id="mask0_72_1311" style="mask-type:luminance" maskUnits="userSpaceOnUse" x="0" y="0" width="24" height="24">
<path d="M0 0H24V24H0V0Z" fill="white"/>
</mask>
<g mask="url(#mask0_72_1311)">
<path d="M13.49 3.22501C13.3618 3.29824 13.242 3.38543 13.133 3.48501L12.525 4.04901L15.451 6.70401C15.8609 7.07715 16.1699 7.5478 16.3492 8.07227C16.5286 8.59673 16.5725 9.15802 16.477 9.70401L14.801 19.21C14.727 19.6348 14.5698 20.0407 14.3386 20.4046C14.1073 20.7684 13.8065 21.083 13.4533 21.3304C13.1002 21.5777 12.7017 21.7529 12.2807 21.8458C11.8597 21.9388 11.4244 21.9477 11 21.872L10.465 21.777L10.584 22.45C10.744 23.36 11.536 24 12.428 24C12.536 24 22.45 22.262 22.45 22.262C22.9397 22.1757 23.3751 21.8983 23.6603 21.491C23.9456 21.0837 24.0573 20.5797 23.971 20.09L21.631 6.82301C21.5765 6.51579 21.4465 6.22695 21.2525 5.98255C21.0585 5.73814 20.8068 5.54585 20.52 5.42301L15.143 3.13501C15.0591 3.09985 14.9729 3.07045 14.885 3.04701L14.652 1.58801L14.493 0.592013C14.4599 0.411322 14.3574 0.250765 14.2074 0.144703C14.0574 0.0386407 13.8719 -0.00450059 13.6905 0.0245118C13.5091 0.0535241 13.3463 0.152385 13.2368 0.299938C13.1274 0.44749 13.0801 0.632012 13.105 0.814013L13.26 1.78601L13.49 3.22501Z" fill="#9BAECA" fill-opacity="0.4"/>
<path d="M7.303 11.118L7.687 8.93799L7.665 8.94099C7.159 9.00099 6.842 9.38599 6.713 9.72699C6.575 10.093 6.613 10.457 6.813 10.68C6.937 10.82 7.098 10.963 7.303 11.118Z" fill="#9BAECA"/>
<path d="M7.982 12.667L7.476 15.533C8.163 15.459 8.646 14.96 8.828 14.445C8.918 14.191 9.138 13.321 8.174 12.777L7.982 12.667Z" fill="#9BAECA"/>
<path d="M8.567 3.40999C8.461 3.43265 8.35733 3.46465 8.256 3.50599L2.848 5.68999C2.248 5.93199 1.816 6.46599 1.704 7.10299L0.0299987 16.606C-0.056342 17.0956 0.0552755 17.5994 0.340311 18.0067C0.625346 18.414 1.06046 18.6914 1.55 18.778L11.245 20.487C11.3557 20.507 11.465 20.5167 11.573 20.516C12.465 20.516 13.257 19.876 13.417 18.966L15.093 9.45999C15.1476 9.14806 15.1225 8.8274 15.02 8.52776C14.9176 8.22812 14.7411 7.95921 14.507 7.74599L10.219 3.85599C10.1361 3.78135 10.0471 3.71378 9.953 3.65399L10.208 2.20999L10.452 0.824986C10.468 0.733979 10.466 0.640709 10.4459 0.550499C10.4259 0.460289 10.3883 0.374907 10.3353 0.299228C10.2823 0.223548 10.2149 0.159053 10.1369 0.109424C10.059 0.0597961 9.972 0.0260068 9.881 0.00998549C9.78999 -0.00603577 9.69672 -0.00397519 9.60651 0.0160496C9.5163 0.0360744 9.43092 0.0736712 9.35524 0.126693C9.27956 0.179716 9.21507 0.247125 9.16544 0.325073C9.11581 0.40302 9.08202 0.489979 9.066 0.580985L8.822 1.96599L8.567 3.40999ZM8.885 7.54499L8.788 8.09499C9.424 8.28099 9.779 8.65599 9.949 8.83499L10.009 8.89799C10.0935 8.98392 10.1417 9.09908 10.1435 9.21958C10.1454 9.34008 10.1008 9.45666 10.019 9.54515C9.93715 9.63365 9.82442 9.68725 9.70415 9.69486C9.58388 9.70246 9.4653 9.66347 9.373 9.58599C9.33833 9.55399 9.30367 9.51865 9.269 9.47999C9.09525 9.2772 8.87352 9.12112 8.624 9.02599L8.155 11.682C8.30233 11.7693 8.46233 11.8623 8.635 11.961C9.682 12.552 10.105 13.651 9.712 14.758C9.51744 15.3044 9.14709 15.7707 8.659 16.084C8.251 16.344 7.791 16.478 7.309 16.48L7.191 17.152C7.18246 17.2145 7.16138 17.2747 7.12902 17.3289C7.09666 17.3831 7.05369 17.4303 7.00268 17.4675C6.95167 17.5047 6.89368 17.5312 6.83217 17.5454C6.77067 17.5597 6.70692 17.5614 6.64475 17.5504C6.58257 17.5394 6.52326 17.516 6.47036 17.4815C6.41745 17.4471 6.37205 17.4023 6.33687 17.3499C6.30169 17.2975 6.27746 17.2385 6.26562 17.1765C6.25379 17.1144 6.2546 17.0507 6.268 16.989L6.38 16.352C5.768 16.216 5.327 16.011 4.72 15.441C4.62929 15.3559 4.57613 15.2382 4.57219 15.1138C4.56825 14.9895 4.61386 14.8687 4.699 14.778C4.78413 14.6873 4.90181 14.6341 5.02615 14.6302C5.15049 14.6262 5.27129 14.6719 5.362 14.757C5.808 15.177 6.086 15.324 6.542 15.429L7.122 12.139C6.672 11.839 6.356 11.575 6.114 11.306C5.681 10.822 5.574 10.091 5.836 9.39599C6.124 8.63299 6.783 8.10099 7.554 8.00999C7.65867 7.99732 7.759 7.98965 7.855 7.98699L7.962 7.38199C7.97054 7.31943 7.99162 7.25925 8.02398 7.20504C8.05634 7.15082 8.09931 7.1037 8.15032 7.0665C8.20133 7.0293 8.25932 7.00278 8.32083 6.98853C8.38233 6.97427 8.44608 6.97259 8.50825 6.98357C8.57042 6.99455 8.62974 7.01797 8.68264 7.05242C8.73555 7.08688 8.78095 7.13166 8.81613 7.18408C8.85131 7.23651 8.87554 7.29549 8.88738 7.35751C8.89921 7.41952 8.8984 7.48329 8.885 7.54499Z" fill="#9BAECA"/>
</g>
</svg>
