<svg width="8" height="13" viewBox="0 0 8 13" fill="none" xmlns="http://www.w3.org/2000/svg">
<path fill-rule="evenodd" clip-rule="evenodd" d="M5.58599 6L1.29299 10.293C1.19748 10.3852 1.1213 10.4956 1.06889 10.6176C1.01648 10.7396 0.988893 10.8708 0.987739 11.0036C0.986585 11.1364 1.01189 11.2681 1.06217 11.391C1.11245 11.5139 1.1867 11.6255 1.28059 11.7194C1.37449 11.8133 1.48614 11.8875 1.60904 11.9378C1.73193 11.9881 1.86361 12.0134 1.99639 12.0123C2.12917 12.0111 2.26039 11.9835 2.38239 11.9311C2.5044 11.8787 2.61474 11.8025 2.70699 11.707L7.70699 6.707C7.89446 6.51947 7.99978 6.26517 7.99978 6C7.99978 5.73484 7.89446 5.48053 7.70699 5.293L2.70699 0.293001C2.51839 0.110843 2.26579 0.0100484 2.00359 0.0123268C1.74139 0.0146053 1.49058 0.119774 1.30517 0.305182C1.11976 0.49059 1.01459 0.741403 1.01232 1.0036C1.01004 1.2658 1.11083 1.5184 1.29299 1.707L5.58599 6Z" fill="white"/>
</svg>
