<svg width="24" height="24" viewBox="0 0 24 24" fill="none" xmlns="http://www.w3.org/2000/svg">
<path opacity="0.4" d="M12 22C17.523 22 22 17.523 22 12C22 6.477 17.523 2 12 2C6.477 2 2 6.477 2 12C2 17.523 6.477 22 12 22Z" fill="#9BAECA"/>
<path d="M17.85 13.53C17.7711 13.3457 17.6243 13.1989 17.44 13.12C17.3487 13.0795 17.2498 13.0591 17.15 13.06H6.84C6.43 13.06 6.09 13.4 6.09 13.81C6.09 14.22 6.43 14.56 6.84 14.56H15.34L13.58 16.32C13.29 16.61 13.29 17.09 13.58 17.38C13.73 17.53 13.92 17.6 14.11 17.6C14.3 17.6 14.49 17.53 14.64 17.38L17.68 14.34C17.75 14.27 17.8 14.19 17.84 14.1C17.9182 13.9187 17.9218 13.7139 17.85 13.53Z" fill="#9BAECA"/>
<path d="M17.15 9.43001H8.65L10.41 7.67001C10.7 7.38001 10.7 6.90001 10.41 6.61001C10.2689 6.47053 10.0784 6.3923 9.88 6.3923C9.68157 6.3923 9.49113 6.47053 9.35 6.61001L6.31 9.65C6.24 9.72 6.19 9.80001 6.15 9.89001C6.07 10.07 6.07 10.28 6.15 10.46C6.23 10.64 6.37 10.79 6.56 10.87C6.65 10.91 6.75 10.93 6.85 10.93H17.16C17.57 10.93 17.91 10.59 17.91 10.18C17.91 9.77001 17.57 9.43001 17.15 9.43001Z" fill="#9BAECA"/>
</svg>
