<svg width="18" height="20" viewBox="0 0 18 20" fill="none" xmlns="http://www.w3.org/2000/svg">
<path opacity="0.4" d="M9.086 20C8.96127 19.9997 8.83833 19.9703 8.727 19.914L5.126 18.05C4.104 17.52 3.305 16.926 2.681 16.234C1.31941 14.7343 0.557934 12.7855 0.542 10.76L0.5 4.12399C0.500392 3.74616 0.619013 3.37792 0.839234 3.0709C1.05945 2.76388 1.37023 2.53348 1.728 2.41199L8.341 0.106988C8.733 -0.0330117 9.171 -0.0350117 9.571 0.0999883L16.208 2.32699C16.951 2.57499 17.453 3.25699 17.458 4.02199L17.5 10.662C17.5095 12.6855 16.7742 14.6418 15.434 16.158C14.817 16.86 14.024 17.463 13.013 18.003L9.443 19.909C9.33326 19.9681 9.21066 19.9994 9.086 20Z" fill="#9BAECA"/>
<path d="M8.319 12.32C8.11971 12.323 7.92721 12.2476 7.783 12.11L5.866 10.266C5.79543 10.1992 5.73911 10.1188 5.70044 10.0297C5.66177 9.94051 5.64155 9.84445 5.64099 9.74728C5.64043 9.65011 5.65954 9.55383 5.69718 9.46424C5.73482 9.37466 5.7902 9.29361 5.86 9.226C6.00261 9.08666 6.19371 9.00807 6.39308 9.00676C6.59246 9.00545 6.78458 9.08154 6.929 9.219L8.308 10.545L11.675 7.225C11.8176 7.08595 12.0084 7.00755 12.2076 7.00624C12.4067 7.00494 12.5986 7.08083 12.743 7.218C13.04 7.504 13.043 7.97 12.751 8.258L8.851 12.102C8.70921 12.2419 8.51818 12.3205 8.319 12.321" fill="#9BAECA"/>
</svg>
