<svg width="24" height="24" viewBox="0 0 24 24" fill="none" xmlns="http://www.w3.org/2000/svg">
<path fill-rule="evenodd" clip-rule="evenodd" d="M6.394 5.877C6.66933 5.833 6.951 5.811 7.239 5.811H16.35C16.597 5.811 16.867 5.821 17.14 5.867C19.9 6.22 21.589 8.429 21.589 11.341V16.225C21.589 17.815 21.094 19.198 20.165 20.193C19.23 21.196 17.9 21.755 16.35 21.755H7.239C5.689 21.755 4.359 21.196 3.424 20.193C2.495 19.198 2 17.815 2 16.225V11.341C2 8.449 3.66 6.251 6.394 5.877Z" fill="#9BAECA" fill-opacity="0.4"/>
<path fill-rule="evenodd" clip-rule="evenodd" d="M15.667 13.783C15.667 13.1185 15.9309 12.4813 16.4006 12.0114C16.8704 11.5414 17.5075 11.2773 18.172 11.277H21.036C21.844 11.277 22.5 11.933 22.5 12.742V14.824C22.5 15.633 21.845 16.288 21.036 16.288H18.172C17.5077 16.2877 16.8707 16.0237 16.401 15.554C15.9313 15.0843 15.6673 14.4473 15.667 13.783Z" fill="#9BAECA"/>
<path d="M3.219 6.69499C3.974 5.76899 5.055 5.14899 6.394 4.96599C6.66934 4.92132 6.951 4.89932 7.239 4.89999H16.35C16.597 4.89999 16.867 4.90999 17.141 4.95599C17.8429 5.03884 18.5198 5.26666 19.129 5.62499L19.088 5.25099C18.871 3.29599 17.186 1.80599 15.248 2.02099L6.279 3.01399C4.445 3.21799 3.166 4.86199 3.219 6.69499Z" fill="#9BAECA"/>
</svg>
