<svg width="16" height="20" viewBox="0 0 16 20" fill="none" xmlns="http://www.w3.org/2000/svg">
<path opacity="0.4" d="M15.3399 12.49L14.3399 10.83C14.1299 10.46 13.9399 9.76 13.9399 9.35V6.82C13.9399 3.56 11.2899 0.900002 8.01994 0.900002C4.74994 0.900002 2.09994 3.56 2.09994 6.82V9.35C2.09994 9.76 1.90994 10.46 1.69994 10.82L0.689943 12.49C0.289943 13.16 0.199943 13.9 0.449943 14.58C0.689943 15.25 1.25994 15.77 1.99994 16.02C3.93994 16.68 5.97994 17 8.01994 17C10.0599 17 12.0999 16.68 14.0399 16.03C14.7399 15.8 15.2799 15.27 15.5399 14.58C15.7999 13.89 15.7299 13.13 15.3399 12.49Z" fill="#9BAECA"/>
<path d="M10.2501 1.32C9.56005 1.05 8.81005 0.9 8.02005 0.9C7.24005 0.9 6.49005 1.04 5.80005 1.32C6.23005 0.51 7.08005 0 8.02005 0C8.97005 0 9.81005 0.51 10.2501 1.32ZM10.8301 18.01C10.6203 18.5925 10.236 19.0961 9.72952 19.4522C9.22309 19.8083 8.61916 19.9996 8.00005 20C7.21005 20 6.43005 19.68 5.88005 19.11C5.56005 18.81 5.32005 18.41 5.18005 18C5.31005 18.02 5.44005 18.03 5.58005 18.05C5.81005 18.08 6.05005 18.11 6.29005 18.13C6.86005 18.18 7.44005 18.21 8.02005 18.21C8.59005 18.21 9.16005 18.18 9.72005 18.13C9.93005 18.11 10.1401 18.1 10.3401 18.07L10.8301 18.01Z" fill="#9BAECA"/>
</svg>
