<svg width="24" height="24" viewBox="0 0 24 24" fill="none" xmlns="http://www.w3.org/2000/svg">
<path opacity="0.4" d="M21.66 10.44L20.68 14.62C19.84 18.23 18.18 19.69 15.06 19.39C14.56 19.35 14.02 19.26 13.44 19.12L11.76 18.72C7.59 17.73 6.3 15.67 7.28 11.49L8.26 7.30001C8.46 6.45001 8.7 5.71001 9 5.10001C10.17 2.68001 12.16 2.03001 15.5 2.82001L17.17 3.21001C21.36 4.19001 22.64 6.26001 21.66 10.44Z" fill="#9BAECA"/>
<path d="M15.06 19.39C14.44 19.81 13.66 20.16 12.71 20.47L11.13 20.99C7.16 22.27 5.07 21.2 3.78 17.23L2.5 13.28C1.22 9.30998 2.28 7.20998 6.25 5.92998L7.83 5.40998C8.24 5.27998 8.63 5.16998 9 5.09998C8.7 5.70998 8.46 6.44998 8.26 7.29998L7.28 11.49C6.3 15.67 7.59 17.73 11.76 18.72L13.44 19.12C14.02 19.26 14.56 19.35 15.06 19.39Z" fill="#9BAECA"/>
<path d="M17.49 10.51C17.43 10.51 17.37 10.5 17.3 10.49L12.45 9.26C12.2696 9.2005 12.1184 9.07473 12.0271 8.9081C11.9358 8.74147 11.9112 8.5464 11.9582 8.36229C12.0051 8.17819 12.1202 8.01878 12.2802 7.91627C12.4402 7.81375 12.6331 7.77577 12.82 7.81L17.67 9.04C17.8438 9.08693 17.9949 9.195 18.0955 9.34435C18.1961 9.49371 18.2394 9.67434 18.2175 9.85307C18.1956 10.0318 18.11 10.1966 17.9764 10.3173C17.8427 10.438 17.67 10.5064 17.49 10.51Z" fill="#9BAECA"/>
<path d="M14.56 13.89C14.5 13.89 14.44 13.88 14.37 13.87L11.46 13.13C11.2796 13.0705 11.1284 12.9447 11.0371 12.7781C10.9458 12.6115 10.9212 12.4164 10.9682 12.2323C11.0151 12.0482 11.1302 11.8888 11.2902 11.7863C11.4502 11.6837 11.6431 11.6458 11.83 11.68L14.74 12.42C15.14 12.52 15.38 12.93 15.28 13.33C15.2 13.67 14.9 13.89 14.56 13.89Z" fill="#9BAECA"/>
</svg>
