<svg width="20" height="22" viewBox="0 0 20 22" fill="none" xmlns="http://www.w3.org/2000/svg">
<path fill-rule="evenodd" clip-rule="evenodd" d="M7.978 13.352C6.385 13.352 5.668 13.712 5.265 14.016C5.204 14.062 5.129 14.178 5.129 14.381V18.791C5.129 19.08 5.309 19.309 5.547 19.376C7.262 19.862 9.887 20.363 12.643 19.862C14.294 19.562 15.34 19.01 16.02 18.437C16.5758 17.9703 17.0105 17.376 17.287 16.705C17.837 15.421 17.653 14.757 17.5 14.525C17.423 14.408 17.348 14.379 17.316 14.372C17.3038 14.3687 17.291 14.3684 17.2787 14.371C17.2664 14.3736 17.2548 14.3791 17.245 14.387C16.7974 14.7457 16.3695 15.1283 15.963 15.533C15.72 15.767 15.483 15.997 15.245 16.187C14.9339 16.4443 14.577 16.6404 14.193 16.765C13.783 16.897 13.324 16.951 12.777 16.951H9.177C8.97809 16.951 8.78732 16.872 8.64667 16.7313C8.50602 16.5907 8.427 16.3999 8.427 16.201C8.427 16.0021 8.50602 15.8113 8.64667 15.6707C8.78732 15.53 8.97809 15.451 9.177 15.451H11.739L11.666 15.238C11.454 14.603 11.148 14.172 10.653 13.876C10.131 13.565 9.313 13.352 7.978 13.352ZM13.334 15.422C13.2427 15.2063 13.161 14.9868 13.089 14.764C12.795 13.882 12.301 13.114 11.422 12.589C10.572 12.08 9.442 11.852 7.978 11.852C6.134 11.852 5.078 12.277 4.361 12.82C3.829 13.221 3.629 13.842 3.629 14.381V18.791C3.629 19.708 4.215 20.558 5.137 20.819C6.957 21.335 9.835 21.897 12.911 21.338C14.779 20.998 16.076 20.351 16.987 19.584C17.7212 18.9664 18.2966 18.1818 18.665 17.296C19.315 15.782 19.299 14.526 18.752 13.698C18.202 12.865 17.11 12.574 16.308 13.216C15.783 13.636 15.39 14.003 15.07 14.31L14.904 14.47C14.662 14.703 14.486 14.874 14.308 15.015C14.1401 15.1585 13.9458 15.2678 13.736 15.337C13.6052 15.3787 13.4705 15.4069 13.334 15.421" fill="#9BAECA"/>
<path d="M0.400002 13.002C0.400002 12.5776 0.568572 12.1707 0.868631 11.8706C1.16869 11.5705 1.57566 11.402 2 11.402H3.6C4.02417 11.4022 4.43088 11.5709 4.73073 11.871C5.03057 12.171 5.199 12.5778 5.199 13.002V19.4C5.199 19.8243 5.03043 20.2313 4.73037 20.5313C4.43031 20.8314 4.02335 21 3.599 21H2C1.57566 21 1.16869 20.8314 0.868631 20.5313C0.568572 20.2313 0.400002 19.8243 0.400002 19.4V13.002Z" fill="#9BAECA"/>
<path fill-rule="evenodd" clip-rule="evenodd" d="M10.32 7.11499C10.32 6.21988 10.6756 5.36144 11.3085 4.7285C11.9414 4.09557 12.7999 3.73999 13.695 3.73999C14.5901 3.73999 15.4486 4.09557 16.0815 4.7285C16.7144 5.36144 17.07 6.21988 17.07 7.11499C17.07 8.0101 16.7144 8.86854 16.0815 9.50148C15.4486 10.1344 14.5901 10.49 13.695 10.49C12.7999 10.49 11.9414 10.1344 11.3085 9.50148C10.6756 8.86854 10.32 8.0101 10.32 7.11499Z" fill="#9BAECA"/>
<path fill-rule="evenodd" clip-rule="evenodd" d="M10.695 0.739992C9.87487 0.739076 9.08246 1.03682 8.46587 1.57759C7.84928 2.11836 7.45069 2.86514 7.34459 3.67838C7.2385 4.49163 7.43215 5.31567 7.88937 5.99653C8.34659 6.67739 9.03608 7.16847 9.829 7.37799C9.79145 6.82599 9.87254 6.27234 10.0668 5.75429C10.2611 5.23624 10.5641 4.7658 10.9554 4.37462C11.3466 3.98344 11.8171 3.68058 12.3352 3.48643C12.8533 3.29227 13.407 3.21131 13.959 3.24899C13.7677 2.52922 13.3438 1.89288 12.7533 1.43909C12.1628 0.985291 11.4398 0.739501 10.695 0.739992Z" fill="#9BAECA" fill-opacity="0.4"/>
</svg>
