<svg width="16" height="16" viewBox="0 0 16 16" fill="none" xmlns="http://www.w3.org/2000/svg">
<path fill-rule="evenodd" clip-rule="evenodd" d="M11.46 10.319L15.764 14.622C15.8389 14.697 15.8983 14.786 15.9389 14.8839C15.9794 14.9819 16.0002 15.0869 16.0002 15.1929C16.0001 15.2989 15.9792 15.4038 15.9386 15.5017C15.898 15.5996 15.8385 15.6886 15.7635 15.7635C15.6885 15.8384 15.5995 15.8978 15.5016 15.9384C15.4036 15.9789 15.2986 15.9997 15.1926 15.9997C15.0866 15.9996 14.9817 15.9787 14.8838 15.9381C14.7859 15.8975 14.6969 15.838 14.622 15.763L10.32 11.46C9.03341 12.4567 7.41545 12.9258 5.79527 12.7719C4.17509 12.618 2.67441 11.8526 1.59852 10.6315C0.522632 9.41033 -0.0476326 7.8252 0.00374187 6.19853C0.0551163 4.57187 0.72427 3.02588 1.87507 1.87508C3.02587 0.724278 4.57186 0.0551239 6.19852 0.0037495C7.82519 -0.0476249 9.41032 0.52264 10.6314 1.59853C11.8526 2.67441 12.6179 4.1751 12.7719 5.79528C12.9258 7.41546 12.4567 9.03242 11.46 10.319ZM6.4 11.199C7.67303 11.199 8.89393 10.6933 9.79411 9.79312C10.6943 8.89294 11.2 7.67204 11.2 6.399C11.2 5.12596 10.6943 3.90507 9.79411 3.00489C8.89393 2.10472 7.67303 1.599 6.4 1.599C5.12696 1.599 3.90606 2.10472 3.00588 3.00489C2.10571 3.90507 1.6 5.12596 1.6 6.399C1.6 7.67204 2.10571 8.89294 3.00588 9.79312C3.90606 10.6933 5.12696 11.199 6.4 11.199Z" fill="#9BAECA"/>
</svg>
