<svg width="24" height="24" viewBox="0 0 24 24" fill="none" xmlns="http://www.w3.org/2000/svg">
<path d="M12.0144 15.396C10.0884 15.396 8.5308 13.896 8.5308 12.012C8.5308 10.128 10.0884 8.61603 12.0144 8.61603C13.9404 8.61603 15.4596 10.128 15.4596 12.012C15.4596 13.896 13.9392 15.396 12.0144 15.396Z" fill="#9BAECA"/>
<path opacity="0.4" d="M23.076 14.844C22.8432 14.484 22.512 14.124 22.0824 13.896C21.7392 13.728 21.5184 13.452 21.3228 13.128C20.6976 12.096 21.0648 10.74 22.1076 10.128C22.3955 9.96987 22.6484 9.75506 22.851 9.49654C23.0537 9.23802 23.2018 8.94113 23.2866 8.62379C23.3714 8.30644 23.391 7.97521 23.3443 7.65008C23.2976 7.32494 23.1855 7.01264 23.0148 6.732L22.1928 5.316C21.8546 4.74062 21.303 4.32202 20.6578 4.15123C20.0127 3.98044 19.3261 4.07128 18.7476 4.404C17.6676 4.98 16.2828 4.596 15.6564 3.576C15.4608 3.24 15.3504 2.88 15.3744 2.52C15.4104 2.052 15.264 1.608 15.0432 1.248C14.816 0.871077 14.4962 0.558536 14.1141 0.340096C13.7321 0.121656 13.3005 0.00457989 12.8604 0L11.1324 0C10.236 0.024 9.4152 0.504 8.9604 1.248C8.7276 1.608 8.5932 2.052 8.6172 2.52C8.6412 2.88 8.532 3.24 8.3352 3.576C7.71 4.596 6.324 4.98 5.2572 4.404C4.67643 4.07159 3.98823 3.98091 3.34118 4.15155C2.69412 4.32218 2.14013 4.74043 1.7988 5.316L0.976799 6.732C0.278399 7.92 0.670799 9.444 1.8852 10.128C2.9268 10.74 3.2952 12.096 2.682 13.128C2.4732 13.452 2.2524 13.728 1.9092 13.896C1.4928 14.124 1.1244 14.484 0.928799 14.844C0.473999 15.588 0.499199 16.524 0.952799 17.304L1.7988 18.744C2.02434 19.1227 2.34397 19.4366 2.72665 19.6553C3.10933 19.8739 3.54205 19.9899 3.9828 19.992C4.3992 19.992 4.8888 19.872 5.2824 19.632C5.5884 19.428 5.9568 19.356 6.3612 19.356C7.5756 19.356 8.5932 20.352 8.6172 21.54C8.6172 22.92 9.7452 24 11.1684 24H12.8364C14.2464 24 15.3744 22.92 15.3744 21.54C15.4104 20.352 16.4304 19.356 17.6424 19.356C18.036 19.356 18.4032 19.428 18.7224 19.632C19.1148 19.872 19.5936 19.992 20.0232 19.992C20.8932 19.992 21.7392 19.512 22.1928 18.744L23.052 17.304C23.4936 16.5 23.5296 15.588 23.076 14.844Z" fill="#9BAECA"/>
</svg>
